<?xml version="1.0" encoding="UTF-8" standalone="no"?><!-- Generator: Gravit.io --><svg xmlns="http://www.w3.org/2000/svg" xmlns:xlink="http://www.w3.org/1999/xlink" style="isolation:isolate" viewBox="0 0 290 290" width="290pt" height="290pt"><defs><clipPath id="_clipPath_FKVGvBtEHTziWHhJl7rdp1a3Z8OE0NN4"><rect width="290" height="290"/></clipPath></defs><g clip-path="url(#_clipPath_FKVGvBtEHTziWHhJl7rdp1a3Z8OE0NN4)"><g><path d=" M 140.583 67.05 Q 145.517 68.023 150.517 75.101 C 151.272 76.17 152.397 77.968 153.028 79.114 Q 165.804 102.331 176.696 132.124 C 181.44 145.1 186.243 159 189.027 168.182 C 189.829 170.826 191.184 175.102 192.051 177.724 Q 196.24 190.389 203.161 205.772 C 212.689 226.953 224.235 245.241 236.561 257.632 C 238.21 259.29 240.954 261.915 242.684 263.49 Q 258.02 277.453 286.414 284.345 L 286.428 290 Q 243.467 292.679 211 286 Q 176.907 280.274 161.809 255.675 Q 121.236 201.967 109.431 115.632 Q 116.709 86.631 131.314 69.693 C 132.017 68.877 133.425 67.964 134.456 67.655 L 135.678 67.288 C 137.015 66.887 139.213 66.781 140.583 67.05 Z " fill="rgb(234,1,35)"/><path d=" M 77.569 9.772 C 80.453 9.618 82.62 11.988 83.475 13.283 C 83.803 13.78 84.274 14.621 84.526 15.161 Q 97.46 42.846 105.02 83.653 Q 111.471 122 119.355 154.226 Q 134.517 215.44 167.874 262.291 Q 172.841 267.726 178.901 272.215 C 183.112 275.334 186.986 278.047 192.134 280.1 C 196.614 281.888 205.369 283.874 205.369 283.874 C 208.41 284.495 214.703 285.686 219.412 286.53 Q 221.275 286.864 235.398 288.493 C 238.655 288.869 249.446 289.695 253 290 L 2 290 L 6.706 286.116 C 8.628 284.53 11.452 281.663 13.008 279.717 L 15.305 276.846 C 17.35 274.29 19.708 269.652 20.569 266.494 Q 23.416 256.052 26.728 242.442 C 35.304 207.21 41.575 170.285 46.367 130.74 C 46.787 127.27 47.389 121.627 47.711 118.147 Q 54.482 44.855 70.892 14.469 C 71.47 13.398 72.699 11.898 73.636 11.122 Q 75.103 9.904 77.569 9.772 Z " fill="rgb(1,22,243)"/></g></g></svg>